<svg width="233" height="55" viewBox="0 0 233 55" fill="none" xmlns="http://www.w3.org/2000/svg">
<path fill-rule="evenodd" clip-rule="evenodd" d="M40.1315 46.7507V54.884H38.9914V46.7507H36.0977V45.9038H43.0386V46.7507H40.1315Z" fill="black"/>
<path fill-rule="evenodd" clip-rule="evenodd" d="M64.2974 54.859L61.9544 51.0229C61.4287 51.0866 60.8923 51.0615 60.3531 51.0615V54.859H59.2004V45.8779H60.4301C62.1846 45.8779 64.669 46.1605 64.669 48.4697C64.669 49.3677 63.9911 50.4586 63.1456 50.7915L65.63 54.859H64.2974ZM60.8537 46.7634H60.3531V50.8426L60.9693 50.1123C62.2616 50.1123 63.4143 49.9195 63.4143 48.354C63.4143 46.9563 61.9294 46.7634 60.8537 46.7634Z" fill="black"/>
<path fill-rule="evenodd" clip-rule="evenodd" d="M88.1587 54.859L87.1592 52.3569H83.3054L82.3184 54.859H81.1792L84.7518 45.8779H85.8274L89.2988 54.859H88.1587ZM85.239 47.4694L83.6762 51.4464H86.7875L85.239 47.4694Z" fill="black"/>
<path fill-rule="evenodd" clip-rule="evenodd" d="M105.371 54.859H106.523V45.8779H105.371V54.859Z" fill="black"/>
<path fill-rule="evenodd" clip-rule="evenodd" d="M124.004 47.5457V54.859H122.98V45.8779H124.031L129.654 52.0358V45.8779H130.677V54.9362L124.004 47.5457Z" fill="black"/>
<path fill-rule="evenodd" clip-rule="evenodd" d="M147.147 54.859H148.301V45.8779H147.147V54.859Z" fill="black"/>
<path fill-rule="evenodd" clip-rule="evenodd" d="M165.782 47.5457V54.859H164.757V45.8779H165.808L171.43 52.0358V45.8779H172.455V54.9362L165.782 47.5457Z" fill="black"/>
<path fill-rule="evenodd" clip-rule="evenodd" d="M193.535 55C190.693 55 188.656 53.3062 188.656 50.343C188.656 47.5332 190.756 45.7498 193.471 45.7498C194.393 45.7498 195.52 45.9552 196.392 46.2889V47.3538C195.584 46.8918 194.573 46.6738 193.651 46.6738C191.435 46.6738 189.898 48.1487 189.898 50.3942C189.898 52.7168 191.372 54.0759 193.651 54.0759C194.458 54.0759 195.124 53.8965 195.853 53.5377V51.2796H193.394L193.817 50.3296H196.994V54.0885C196.007 54.7174 194.689 55 193.535 55Z" fill="black"/>
<path fill-rule="evenodd" clip-rule="evenodd" d="M58.5533 14.7523V25.5608H55.2727V0H59.1373C64.2405 0 70.9844 0.584026 70.9844 7.30257C70.9844 13.9852 63.5114 14.7891 58.5533 14.7523ZM59.8296 2.51912H58.5533V14.2041L60.3768 12.0134H61.1784C64.1312 12.0134 67.4844 11.1369 67.4844 7.4488C67.4844 3.03048 63.2195 2.51912 59.8296 2.51912Z" fill="black"/>
<path fill-rule="evenodd" clip-rule="evenodd" d="M73.1694 25.5608H76.4501V0H73.1694V25.5608Z" fill="black"/>
<path fill-rule="evenodd" clip-rule="evenodd" d="M90.7017 2.48242V25.6336H87.4578V2.48242H79.22V0.0727539H98.9771V2.48242H90.7017Z" fill="black"/>
<path fill-rule="evenodd" clip-rule="evenodd" d="M124.49 25.5608L122.413 5.55049L112.971 25.524L103.711 5.18536L101.78 25.5976L98.4255 25.5608L101.196 0H104.622L113.262 18.2941L121.648 0H125.001L127.771 25.5608H124.49Z" fill="black"/>
<path fill-rule="evenodd" clip-rule="evenodd" d="M149.203 25.5608L146.36 18.4403H135.388L132.581 25.5608H129.337L139.506 0H142.569L152.448 25.5608H149.203ZM140.892 4.52777L136.444 15.8477H145.303L140.892 4.52777Z" fill="black"/>
<path fill-rule="evenodd" clip-rule="evenodd" d="M157.804 4.74667V25.5608H154.887V0H157.877L173.881 17.5271V0H176.796V25.7797L157.804 4.74667Z" fill="black"/>
<path fill-rule="evenodd" clip-rule="evenodd" d="M0.000320664 52.5625C0.000320664 52.5625 2.68837 38.0776 13.871 38.0533C25.0536 38.0327 217.363 38.0327 217.363 38.0327C217.363 38.0327 233 39.2779 233 19.5906C233 19.5906 229.124 32.9317 217.245 33.1308H13.9534C13.9534 33.1308 -0.0772741 32.1386 0.000320664 52.5625Z" fill="#005896"/>
</svg>
