<svg width="20" height="20" viewBox="0 0 20 20" fill="none" xmlns="http://www.w3.org/2000/svg">
<path d="M13.3333 5.83333C13.3333 5.61232 13.421 5.40036 13.5773 5.24408C13.7336 5.0878 13.9456 5 14.1666 5C14.3876 5 14.5996 5.0878 14.7558 5.24408C14.9121 5.40036 14.9999 5.61232 14.9999 5.83333C14.9999 6.05435 14.9121 6.26631 14.7558 6.42259C14.5996 6.57887 14.3876 6.66667 14.1666 6.66667C13.9456 6.66667 13.7336 6.57887 13.5773 6.42259C13.421 6.26631 13.3333 6.05435 13.3333 5.83333Z" fill="white"/>
<path fill-rule="evenodd" clip-rule="evenodd" d="M10.0001 6.0415C8.95027 6.0415 7.94345 6.45854 7.20112 7.20087C6.45879 7.9432 6.04175 8.95002 6.04175 9.99984C6.04175 11.0497 6.45879 12.0565 7.20112 12.7988C7.94345 13.5411 8.95027 13.9582 10.0001 13.9582C11.0499 13.9582 12.0567 13.5411 12.799 12.7988C13.5414 12.0565 13.9584 11.0497 13.9584 9.99984C13.9584 8.95002 13.5414 7.9432 12.799 7.20087C12.0567 6.45854 11.0499 6.0415 10.0001 6.0415ZM7.29175 9.99984C7.29175 9.28154 7.57709 8.59267 8.085 8.08476C8.59291 7.57685 9.28179 7.2915 10.0001 7.2915C10.7184 7.2915 11.4073 7.57685 11.9152 8.08476C12.4231 8.59267 12.7084 9.28154 12.7084 9.99984C12.7084 10.7181 12.4231 11.407 11.9152 11.9149C11.4073 12.4228 10.7184 12.7082 10.0001 12.7082C9.28179 12.7082 8.59291 12.4228 8.085 11.9149C7.57709 11.407 7.29175 10.7181 7.29175 9.99984Z" fill="white"/>
<path fill-rule="evenodd" clip-rule="evenodd" d="M14.3815 2.36078C11.4694 2.03794 8.53041 2.03794 5.61822 2.36078C3.94155 2.54828 2.58738 3.86911 2.39072 5.55411C2.04522 8.50793 2.04522 11.492 2.39072 14.4458C2.58738 16.1308 3.94072 17.4516 5.61822 17.6391C8.53043 17.9616 11.4693 17.9616 14.3815 17.6391C16.0582 17.4516 17.4124 16.1308 17.6091 14.4458C17.9546 11.492 17.9546 8.50793 17.6091 5.55411C17.4124 3.86911 16.0591 2.54828 14.3815 2.36078ZM5.75655 3.60245C8.5768 3.28984 11.423 3.28984 14.2432 3.60245C15.3516 3.72745 16.2391 4.60161 16.3682 5.69995C16.7023 8.55688 16.7023 11.443 16.3682 14.2999C16.3014 14.8375 16.0553 15.3368 15.6698 15.7172C15.2842 16.0977 14.7816 16.337 14.2432 16.3966C11.423 16.7092 8.5768 16.7092 5.75655 16.3966C5.21817 16.337 4.71559 16.0977 4.33001 15.7172C3.94443 15.3368 3.69836 14.8375 3.63155 14.2999C3.29742 11.443 3.29742 8.55688 3.63155 5.69995C3.69836 5.16241 3.94443 4.6631 4.33001 4.28266C4.71559 3.90222 5.21817 3.66204 5.75655 3.60245Z" fill="white"/>
</svg>
