<svg width="201" height="47" viewBox="0 0 201 47" fill="none" xmlns="http://www.w3.org/2000/svg">
<path fill-rule="evenodd" clip-rule="evenodd" d="M34.9449 39.5244V46.4005H33.9663V39.5244H31.4824V38.8084H37.4403V39.5244H34.9449Z" fill="black"/>
<path fill-rule="evenodd" clip-rule="evenodd" d="M55.6883 46.3793L53.6772 43.1361C53.2259 43.19 52.7654 43.1687 52.3026 43.1687V46.3793H51.3132V38.7864H52.3687C53.8748 38.7864 56.0073 39.0253 56.0073 40.9776C56.0073 41.7368 55.4254 42.6591 54.6996 42.9404L56.8322 46.3793H55.6883ZM52.7324 39.535H52.3026V42.9837L52.8315 42.3663C53.9409 42.3663 54.9303 42.2032 54.9303 40.8797C54.9303 39.6981 53.6557 39.535 52.7324 39.535Z" fill="black"/>
<path fill-rule="evenodd" clip-rule="evenodd" d="M76.1702 46.3793L75.3122 44.2639H72.0042L71.1571 46.3793H70.1792L73.2458 38.7864H74.1691L77.1488 46.3793H76.1702ZM73.664 40.1319L72.3225 43.4941H74.9932L73.664 40.1319Z" fill="black"/>
<path fill-rule="evenodd" clip-rule="evenodd" d="M90.9448 46.3793H91.9342V38.7864H90.9448V46.3793Z" fill="black"/>
<path fill-rule="evenodd" clip-rule="evenodd" d="M106.939 40.1964V46.3793H106.06V38.7864H106.962L111.788 43.9924V38.7864H112.667V46.4445L106.939 40.1964Z" fill="black"/>
<path fill-rule="evenodd" clip-rule="evenodd" d="M126.804 46.3793H127.795V38.7864H126.804V46.3793Z" fill="black"/>
<path fill-rule="evenodd" clip-rule="evenodd" d="M142.799 40.1964V46.3793H141.92V38.7864H142.822L147.648 43.9924V38.7864H148.527V46.4445L142.799 40.1964Z" fill="black"/>
<path fill-rule="evenodd" clip-rule="evenodd" d="M166.622 46.4983C164.182 46.4983 162.434 45.0664 162.434 42.5612C162.434 40.1857 164.237 38.6779 166.567 38.6779C167.359 38.6779 168.326 38.8516 169.074 39.1338V40.0341C168.381 39.6435 167.513 39.4592 166.721 39.4592C164.819 39.4592 163.5 40.706 163.5 42.6044C163.5 44.5681 164.765 45.7171 166.721 45.7171C167.414 45.7171 167.986 45.5654 168.612 45.2621V43.353H166.501L166.864 42.5498H169.591V45.7277C168.744 46.2594 167.612 46.4983 166.622 46.4983Z" fill="black"/>
<path fill-rule="evenodd" clip-rule="evenodd" d="M50.7579 12.472V21.6098H47.9419V0H51.2591C55.6395 0 61.4283 0.493751 61.4283 6.17379C61.4283 11.8235 55.0138 12.5031 50.7579 12.472ZM51.8534 2.12973H50.7579V12.0086L52.3231 10.1564H53.0111C55.5457 10.1564 58.424 9.41541 58.424 6.29742C58.424 2.56205 54.7631 2.12973 51.8534 2.12973Z" fill="black"/>
<path fill-rule="evenodd" clip-rule="evenodd" d="M63.304 21.6098H66.1199V0H63.304V21.6098Z" fill="black"/>
<path fill-rule="evenodd" clip-rule="evenodd" d="M78.3531 2.09863V21.6712H75.5687V2.09863H68.4976V0.0614319H85.4565V2.09863H78.3531Z" fill="black"/>
<path fill-rule="evenodd" clip-rule="evenodd" d="M107.356 21.6098L105.573 4.69253L97.4684 21.5787L89.5202 4.38385L87.8619 21.6409L84.9829 21.6098L87.3607 0H90.302L97.7183 15.4663L104.916 0H107.794L110.172 21.6098H107.356Z" fill="black"/>
<path fill-rule="evenodd" clip-rule="evenodd" d="M128.569 21.6098L126.128 15.59H116.711L114.301 21.6098H111.516L120.245 0H122.875L131.354 21.6098H128.569ZM121.435 3.8279L117.617 13.398H125.221L121.435 3.8279Z" fill="black"/>
<path fill-rule="evenodd" clip-rule="evenodd" d="M135.952 4.01296V21.6098H133.448V0H136.014L149.751 14.8179V0H152.254V21.7948L135.952 4.01296Z" fill="black"/>
<path fill-rule="evenodd" clip-rule="evenodd" d="M0.497834 44.4376C0.497834 44.4376 2.80517 32.1917 12.404 32.1712C22.0028 32.1538 187.075 32.1538 187.075 32.1538C187.075 32.1538 200.498 33.2065 200.498 16.5623C200.498 16.5623 197.17 27.8412 186.974 28.0096H12.4747C12.4747 28.0096 0.431229 27.1707 0.497834 44.4376Z" fill="#005896"/>
</svg>
