<svg width="120" height="120" viewBox="0 0 120 120" fill="none" xmlns="http://www.w3.org/2000/svg">
<path fill-rule="evenodd" clip-rule="evenodd" d="M38.862 48.2336H42.0458V74.3297H37.5294V52.8605L32.8658 54.1559L31.9033 50.4548L38.862 48.2336Z" fill="#005896"/>
<path fill-rule="evenodd" clip-rule="evenodd" d="M58.4062 52.9161C57.5672 52.2131 56.4445 51.8613 55.0386 51.8613C53.6314 51.8613 52.508 52.2131 51.6698 52.9161C50.8302 53.6197 50.411 54.4776 50.411 55.4885C50.411 56.6491 50.8491 57.5862 51.7253 58.3022C52.6009 59.0182 53.7053 59.3752 55.0386 59.3752C56.3706 59.3752 57.475 59.0182 58.3512 58.3022C59.2261 57.5862 59.6656 56.6609 59.6656 55.5257C59.6656 54.4893 59.2451 53.6197 58.4062 52.9161ZM60.054 65.3354C59.7702 64.8418 59.387 64.4226 58.9057 64.0767C58.4258 63.7314 57.851 63.466 57.1853 63.2803C56.519 63.0959 55.8024 63.003 55.0386 63.003C54.2729 63.003 53.5575 63.0959 52.8912 63.2803C52.2249 63.466 51.6508 63.7314 51.1695 64.0767C50.6889 64.4226 50.3057 64.8418 50.0226 65.3354C49.7382 65.8291 49.5969 66.3712 49.5969 66.9636C49.5969 68.0739 50.0775 69.0057 51.0407 69.7584C52.0026 70.5117 53.3352 70.8876 55.0386 70.8876C56.7407 70.8876 58.0733 70.5117 59.0359 69.7584C59.9977 69.0057 60.479 68.0739 60.479 66.9636C60.479 66.3712 60.3371 65.8291 60.054 65.3354ZM64.1813 70.2952C63.687 71.2335 62.9965 72.0293 62.1085 72.6826C61.2199 73.3371 60.1704 73.8367 58.962 74.182C57.7523 74.5272 56.4445 74.6998 55.0386 74.6998C53.6314 74.6998 52.323 74.5207 51.1139 74.1636C49.9049 73.806 48.8561 73.3064 47.9681 72.6643C47.0801 72.0228 46.3883 71.2388 45.8952 70.3135C45.4015 69.3883 45.155 68.3702 45.155 67.2598C45.155 65.6559 45.5617 64.3481 46.3765 63.3358C47.1906 62.3249 48.3382 61.5102 49.8186 60.8936C48.7325 60.326 47.8321 59.5792 47.1167 58.654C46.4007 57.7281 46.043 56.538 46.043 55.0818C46.043 54.095 46.2712 53.1698 46.7276 52.3053C47.1841 51.4415 47.8072 50.6948 48.5971 50.0658C49.387 49.4367 50.3306 48.943 51.4291 48.5853C52.527 48.2277 53.7295 48.0485 55.0386 48.0485C56.3209 48.0485 57.5188 48.2277 58.6285 48.5853C59.7394 48.943 60.6889 49.4367 61.4795 50.0658C62.2687 50.6948 62.8919 51.4415 63.3476 52.3053C63.8047 53.1698 64.0336 54.095 64.0336 55.0818C64.0336 56.538 63.6746 57.7281 62.9592 58.654C62.2439 59.5792 61.3428 60.326 60.2567 60.8936C61.6645 61.535 62.7931 62.3498 63.6438 63.3358C64.4959 64.3239 64.9209 65.5944 64.9209 67.1487C64.9209 68.3087 64.6744 69.3575 64.1813 70.2952Z" fill="#005896"/>
<path fill-rule="evenodd" clip-rule="evenodd" d="M84.0026 57.7836C83.6933 56.6491 83.2493 55.6618 82.67 54.8222C82.09 53.9839 81.3929 53.3176 80.5782 52.8239C79.7641 52.3302 78.8506 52.083 77.839 52.083C76.8268 52.083 75.9198 52.3243 75.1188 52.8049C74.3158 53.2862 73.6312 53.9407 73.0636 54.7666C72.4961 55.5944 72.058 56.5753 71.7506 57.7098C71.4413 58.8449 71.2877 60.0546 71.2877 61.3376C71.2877 62.6453 71.4413 63.8609 71.7506 64.983C72.058 66.1064 72.5026 67.0931 73.0826 67.9445C73.662 68.7965 74.3597 69.4628 75.1744 69.9434C75.9885 70.4247 76.9007 70.6653 77.9129 70.6653C78.9245 70.6653 79.8321 70.4247 80.6338 69.9434C81.4354 69.4628 82.1207 68.8024 82.6883 67.9634C83.2559 67.1245 83.6933 66.1437 84.0026 65.0203C84.3106 63.8975 84.4649 62.6944 84.4649 61.4114C84.4649 60.1285 84.3106 58.9195 84.0026 57.7836ZM88.3516 66.5752C87.8089 68.2165 87.0432 69.6413 86.0565 70.8504C85.0698 72.0601 83.8784 73.0161 82.4849 73.719C81.0902 74.4226 79.5424 74.7744 77.839 74.7744C76.1369 74.7744 74.5937 74.4285 73.2121 73.738C71.8304 73.0468 70.6455 72.0967 69.6582 70.8876C68.6714 69.6786 67.9123 68.2597 67.382 66.6308C66.851 65.002 66.5862 63.262 66.5862 61.4114C66.5862 59.5603 66.8575 57.815 67.4003 56.1738C67.943 54.5331 68.7081 53.1077 69.6954 51.898C70.6828 50.6896 71.8736 49.7329 73.2677 49.0293C74.6618 48.3264 76.2108 47.9746 77.9129 47.9746C79.6163 47.9746 81.1575 48.3205 82.5398 49.011C83.9222 49.7022 85.1064 50.6523 86.0938 51.8613C87.0805 53.0704 87.8396 54.4893 88.3706 56.1182C88.9009 57.747 89.1657 59.4864 89.1657 61.3376C89.1657 63.1881 88.8944 64.934 88.3516 66.5752Z" fill="#005896"/>
<path fill-rule="evenodd" clip-rule="evenodd" d="M59.9994 119.308C92.7018 119.308 119.308 92.7028 119.308 59.9997C119.308 27.2972 92.7018 0.69165 59.9994 0.69165C27.2969 0.69165 0.690674 27.2972 0.690674 59.9997C0.690674 92.7028 27.2969 119.308 59.9994 119.308ZM59.9994 118.436C92.2212 118.436 118.435 92.2215 118.435 59.9997C118.435 27.7778 92.2212 1.56394 59.9994 1.56394C27.7775 1.56394 1.56297 27.7778 1.56297 59.9997C1.56297 92.2215 27.7775 118.436 59.9994 118.436Z" stroke="#005896" stroke-width="0.666"/>
<path fill-rule="evenodd" clip-rule="evenodd" d="M86.14 22.1498C86.14 22.1498 84.9944 13.6786 71.9067 10.9211C75.7039 21.832 86.14 22.1498 86.14 22.1498ZM73.2256 12.2008C77.011 17.6758 85.5594 21.8712 85.5594 21.8712C85.5594 21.8712 76.0845 18.5037 73.2256 12.2008Z" fill="#005896"/>
<path fill-rule="evenodd" clip-rule="evenodd" d="M75.2507 105.547C75.3403 103.367 78.8896 93.1481 88.4293 90.7875C86.5173 99.6203 82.2363 101.473 82.2363 101.473C82.2363 101.473 87.6636 99.2156 94.311 102.744C87.4759 108.588 77.0888 106.788 75.2507 105.547ZM79.4729 103.104C79.4729 103.104 86.6337 100.996 93.0758 102.673C86.7959 99.7642 79.4729 103.104 79.4729 103.104ZM76.5317 104.217C76.5317 104.217 81.0593 95.8402 86.6788 92.2725C80.2687 94.8816 76.5317 104.217 76.5317 104.217Z" fill="#005896"/>
<path fill-rule="evenodd" clip-rule="evenodd" d="M89.4735 100.052C88.6594 98.0274 87.6989 87.2526 95.4272 81.1819C97.3117 90.0205 94.1691 93.4678 94.1691 93.4678C94.1691 93.4678 98.1906 89.1809 105.701 89.6674C101.869 97.8032 91.6588 100.428 89.4735 100.052ZM92.3199 96.0906C92.3199 96.0906 97.9833 91.227 104.545 90.1101C97.625 90.0375 92.3199 96.0906 92.3199 96.0906ZM90.0954 98.3125C90.0954 98.3125 90.7826 88.8154 94.4412 83.2547C89.6684 88.2661 90.0954 98.3125 90.0954 98.3125Z" fill="#005896"/>
<path fill-rule="evenodd" clip-rule="evenodd" d="M100.273 89.1221C98.7537 87.556 93.7841 77.9477 98.6386 69.4026C103.729 76.8701 102.126 81.2499 102.126 81.2499C102.126 81.2499 104.225 75.7598 111.36 73.3665C110.894 82.3478 102.438 88.6421 100.273 89.1221ZM101.408 84.3781C101.408 84.3781 104.807 77.7319 110.458 74.2133C104.025 76.7668 101.408 84.3781 101.408 84.3781ZM100.19 87.2768C100.19 87.2768 97.2301 78.2269 98.5104 71.6945C95.991 78.1406 100.19 87.2768 100.19 87.2768Z" fill="#005896"/>
<path fill-rule="evenodd" clip-rule="evenodd" d="M106.539 56.4471C104.474 55.7422 95.6835 49.4367 96.1294 39.6192C104.056 43.9617 104.616 48.5919 104.616 48.5919C104.616 48.5919 103.993 42.7474 109.264 37.3757C112.927 45.5892 108.25 55.0366 106.539 56.4471ZM105.396 51.7051C105.396 51.7051 105.408 44.2402 108.845 38.5396C104.273 43.7354 105.396 51.7051 105.396 51.7051ZM105.627 54.8411C105.627 54.8411 98.881 48.1204 97.056 41.7195C97.7373 48.6063 105.627 54.8411 105.627 54.8411Z" fill="#005896"/>
<path fill-rule="evenodd" clip-rule="evenodd" d="M104.973 41.4141C102.806 41.6665 92.1577 39.7598 88.3337 30.7066C97.3568 31.2134 99.856 35.1518 99.856 35.1518C99.856 35.1518 96.7781 30.1449 99.223 23.0273C106.064 28.864 105.911 39.4047 104.973 41.4141ZM101.9 37.6261C101.9 37.6261 98.6973 30.8832 99.3459 24.2586C97.4555 30.9159 101.9 37.6261 101.9 37.6261ZM103.459 40.3568C103.459 40.3568 94.4771 37.1959 90.0744 32.2034C93.6538 38.1263 103.459 40.3568 103.459 40.3568Z" fill="#005896"/>
<path fill-rule="evenodd" clip-rule="evenodd" d="M97.3529 28.403C95.4069 29.3903 84.757 31.2866 78.0356 24.1167C86.6768 21.4691 90.3844 24.2991 90.3844 24.2991C90.3844 24.2991 85.7633 20.6668 85.594 13.1431C94.0325 16.251 97.5367 26.1928 97.3529 28.403ZM93.1589 25.9129C93.1589 25.9129 87.8198 20.6949 86.1354 14.2553C86.6664 21.1559 93.1589 25.9129 93.1589 25.9129ZM95.5658 27.9354C95.5658 27.9354 86.0452 28.078 80.1863 24.9184C85.5953 29.236 95.5658 27.9354 95.5658 27.9354Z" fill="#005896"/>
<path fill-rule="evenodd" clip-rule="evenodd" d="M33.2495 21.6823C33.2495 21.6823 35.274 13.3772 48.5787 12.0027C43.6621 22.4571 33.2495 21.6823 33.2495 21.6823ZM47.133 13.1378C42.7957 18.1872 33.8563 21.4658 33.8563 21.4658C33.8563 21.4658 43.6307 19.1072 47.133 13.1378Z" fill="#005896"/>
<path fill-rule="evenodd" clip-rule="evenodd" d="M44.5229 105.628C44.4621 103.447 41.0469 93.1828 31.5386 90.6973C33.3349 99.5543 37.591 101.462 37.591 101.462C37.591 101.462 32.1945 99.1345 25.5012 102.576C32.2592 108.509 42.6685 106.845 44.5229 105.628ZM40.3335 103.13C40.3335 103.13 33.2001 100.928 26.7371 102.52C33.0543 99.6949 40.3335 103.13 40.3335 103.13ZM43.2596 104.281C43.2596 104.281 38.8419 95.8461 33.2695 92.2052C39.6449 94.8979 43.2596 104.281 43.2596 104.281Z" fill="#005896"/>
<path fill-rule="evenodd" clip-rule="evenodd" d="M30.3734 99.9479C31.2136 97.9339 32.3154 87.1728 24.6675 81.0014C22.6672 89.8152 25.7641 93.3031 25.7641 93.3031C25.7641 93.3031 21.7995 88.9638 14.2837 89.3523C18.0089 97.5377 28.1828 100.295 30.3734 99.9479ZM27.5793 95.95C27.5793 95.95 21.98 91.0125 15.4332 89.8093C22.354 89.8276 27.5793 95.95 27.5793 95.95ZM29.7744 98.2007C29.7744 98.2007 29.2114 88.6951 25.6261 83.0873C30.3328 88.1609 29.7744 98.2007 29.7744 98.2007Z" fill="#005896"/>
<path fill-rule="evenodd" clip-rule="evenodd" d="M19.7169 88.8775C21.2574 87.3317 26.3519 77.7888 21.6099 69.1816C16.4212 76.5811 17.967 80.9818 17.967 80.9818C17.967 80.9818 15.9406 75.4649 8.8374 72.9781C9.18593 81.9646 17.5584 88.3695 19.7169 88.8775ZM18.6445 84.1192C18.6445 84.1192 15.3319 77.4292 9.728 73.8367C16.1263 76.4745 18.6445 84.1192 18.6445 84.1192ZM19.8241 87.0336C19.8241 87.0336 22.902 78.0229 21.7073 71.4748C24.1424 77.953 19.8241 87.0336 19.8241 87.0336Z" fill="#005896"/>
<path fill-rule="evenodd" clip-rule="evenodd" d="M13.2839 56.4471C15.3489 55.7422 24.1392 49.4367 23.6932 39.6192C15.7667 43.9617 15.2064 48.5919 15.2064 48.5919C15.2064 48.5919 15.8295 42.7474 10.5585 37.3757C6.89604 45.5892 11.5727 55.0366 13.2839 56.4471ZM14.4269 51.7051C14.4269 51.7051 14.4145 44.2402 10.9776 38.5396C15.5496 43.7354 14.4269 51.7051 14.4269 51.7051ZM14.1961 54.8411C14.1961 54.8411 20.9416 48.1204 22.7667 41.7195C22.0846 48.6063 14.1961 54.8411 14.1961 54.8411Z" fill="#005896"/>
<path fill-rule="evenodd" clip-rule="evenodd" d="M14.8494 41.4141C17.0171 41.6665 27.665 39.7598 31.489 30.7066C22.4659 31.2134 19.9668 35.1518 19.9668 35.1518C19.9668 35.1518 23.0446 30.1449 20.5997 23.0273C13.7587 28.864 13.9117 39.4047 14.8494 41.4141ZM17.9227 37.6261C17.9227 37.6261 21.1255 30.8832 20.4768 24.2586C22.3672 30.9159 17.9227 37.6261 17.9227 37.6261ZM16.3638 40.3568C16.3638 40.3568 25.3457 37.1959 29.7483 32.2034C26.1689 38.1263 16.3638 40.3568 16.3638 40.3568Z" fill="#005896"/>
<path fill-rule="evenodd" clip-rule="evenodd" d="M22.4702 28.403C24.4162 29.3903 35.0662 31.2866 41.7875 24.1167C33.1463 21.4691 29.4388 24.2991 29.4388 24.2991C29.4388 24.2991 34.0598 20.6668 34.2292 13.1431C25.7907 16.251 22.2865 26.1928 22.4702 28.403ZM26.6643 25.9129C26.6643 25.9129 32.0033 20.6949 33.6877 14.2553C33.1568 21.1559 26.6643 25.9129 26.6643 25.9129ZM24.2573 27.9354C24.2573 27.9354 33.778 28.078 39.6369 24.9184C34.2279 29.236 24.2573 27.9354 24.2573 27.9354Z" fill="#005896"/>
<path fill-rule="evenodd" clip-rule="evenodd" d="M15.1181 73.2404C16.8758 71.947 23.3631 63.2901 19.9857 54.061C13.7319 60.5862 14.5898 65.1707 14.5898 65.1707C14.5898 65.1707 13.4265 59.4092 6.78429 55.871C5.76094 64.8058 13.0623 72.4099 15.1181 73.2404ZM14.7827 68.3741C14.7827 68.3741 12.5261 61.2584 7.53365 56.8551C13.4566 60.4358 14.7827 68.3741 14.7827 68.3741ZM15.5052 71.4343C15.5052 71.4343 19.9177 62.9965 19.7333 56.3431C21.1542 63.1161 15.5052 71.4343 15.5052 71.4343Z" fill="#005896"/>
<path fill-rule="evenodd" clip-rule="evenodd" d="M106.93 73.2501C108.884 72.2007 115.315 63.8472 113.325 55.0772C107.108 59.317 106.578 65.1707 106.578 65.1707C106.578 65.1707 106.932 60.5202 100.005 54.7143C97.6523 64.2559 105.043 72.1555 106.93 73.2501ZM106.735 68.376C106.735 68.376 107.189 60.3404 112.687 56.1371C108.204 61.057 106.735 68.376 106.735 68.376ZM106.349 71.4971C106.349 71.4971 99.8291 63.8426 100.504 56.9552C101.045 63.5889 106.349 71.4971 106.349 71.4971Z" fill="#005896"/>
<path fill-rule="evenodd" clip-rule="evenodd" d="M46.2691 83.787V86.1586H44.96V83.8125L42.6733 80.2082H44.2041L45.623 82.5969L47.0681 80.2082H48.5558L46.2691 83.787Z" fill="#005896"/>
<path fill-rule="evenodd" clip-rule="evenodd" d="M50.137 86.1586V80.2082H54.6168V81.3728H51.4291V82.5799H54.2336V83.7445H51.4291V84.9941H54.6593V86.1586H50.137Z" fill="#005896"/>
<path fill-rule="evenodd" clip-rule="evenodd" d="M59.2162 81.7383L58.4257 83.668H60.0068L59.2162 81.7383ZM61.0177 86.1586L60.4737 84.824H57.9575L57.4135 86.1586H56.0789L58.629 80.1657H59.8361L62.3863 86.1586H61.0177Z" fill="#005896"/>
<path fill-rule="evenodd" clip-rule="evenodd" d="M67.699 82.2399C67.699 81.9561 67.6088 81.7436 67.427 81.6023C67.2459 81.4604 66.9935 81.3898 66.6705 81.3898H65.3699V83.0984H66.696C67.019 83.0984 67.2668 83.0219 67.4401 82.8689C67.6121 82.7159 67.699 82.5119 67.699 82.2569V82.2399ZM67.6735 86.1586L66.3985 84.2545H65.3699V86.1586H64.0608V80.2082H66.781C67.4892 80.2082 68.0404 80.3809 68.434 80.7268C68.8283 81.072 69.0251 81.5539 69.0251 82.1719V82.1889C69.0251 82.6701 68.9074 83.0631 68.672 83.3659C68.4373 83.6693 68.1293 83.8916 67.75 84.0335L69.2037 86.1586H67.6735Z" fill="#005896"/>
<path fill-rule="evenodd" clip-rule="evenodd" d="M75.1122 85.185C75.005 85.4145 74.8566 85.6074 74.665 85.763C74.4734 85.9193 74.2445 86.0383 73.9797 86.1201C73.7136 86.2025 73.4193 86.2436 73.0963 86.2436C72.6431 86.2436 72.1985 86.1652 71.7617 86.0096C71.3255 85.8539 70.9293 85.6146 70.5723 85.2916L71.3452 84.365C71.6172 84.586 71.8964 84.7619 72.1828 84.8921C72.4686 85.0222 72.7824 85.0876 73.1218 85.0876C73.3938 85.0876 73.605 85.0379 73.7554 84.9385C73.9052 84.8397 73.981 84.7024 73.981 84.5265V84.5095C73.981 84.4245 73.9647 84.3493 73.9333 84.2839C73.9025 84.2192 73.843 84.1584 73.7548 84.1015C73.6665 84.0446 73.5449 83.9877 73.3879 83.9315C73.2316 83.8746 73.0289 83.8151 72.7792 83.753C72.4777 83.6791 72.205 83.5967 71.9605 83.5065C71.7159 83.4156 71.5086 83.3038 71.3386 83.1704C71.168 83.0376 71.0359 82.8715 70.9417 82.6734C70.8482 82.4746 70.8011 82.2281 70.8011 81.9338V81.9168C70.8011 81.6448 70.8515 81.3996 70.9535 81.1812C71.0548 80.9635 71.1967 80.7745 71.3798 80.6162C71.5623 80.4574 71.7813 80.3357 72.035 80.2507C72.2894 80.1657 72.5693 80.1232 72.8753 80.1232C73.3114 80.1232 73.7123 80.188 74.0784 80.3187C74.444 80.4489 74.7794 80.6359 75.0854 80.8798L74.4054 81.8658C74.1392 81.6841 73.8783 81.5415 73.624 81.4362C73.3683 81.3316 73.1133 81.2793 72.8583 81.2793C72.6033 81.2793 72.4123 81.329 72.2848 81.4277C72.1573 81.5271 72.0932 81.6507 72.0932 81.7978V81.8148C72.0932 81.911 72.1115 81.9947 72.1488 82.0653C72.1861 82.1366 72.2521 82.2 72.3495 82.2569C72.4457 82.3131 72.5778 82.3674 72.7451 82.4184C72.9132 82.4694 73.1244 82.5289 73.3807 82.5969C73.6815 82.676 73.9503 82.7656 74.1857 82.8643C74.4211 82.9637 74.6205 83.0827 74.7827 83.2214C74.9442 83.3606 75.0665 83.5235 75.1489 83.7105C75.2312 83.8975 75.2724 84.1211 75.2724 84.382V84.399C75.2724 84.6939 75.2188 84.9555 75.1122 85.185Z" fill="#005896"/>
<path fill-rule="evenodd" clip-rule="evenodd" d="M43.8715 38.0387C43.7702 38.1185 43.6597 38.1878 43.5393 38.2453C43.419 38.3029 43.2876 38.3467 43.1444 38.3761C43.0018 38.4055 42.841 38.4206 42.6631 38.4206C42.3944 38.4206 42.1453 38.3715 41.9151 38.2741C41.6849 38.176 41.4861 38.0426 41.3187 37.8733C41.1513 37.7046 41.0206 37.5045 40.9264 37.275C40.8322 37.0448 40.7852 36.7989 40.7852 36.5374V36.5269C40.7852 36.2654 40.8322 36.0201 40.9264 35.7919C41.0206 35.5631 41.1513 35.363 41.3187 35.1897C41.4861 35.0177 41.6869 34.8817 41.9203 34.7823C42.1538 34.6829 42.412 34.6332 42.6945 34.6332C42.8658 34.6332 43.0215 34.647 43.1627 34.6751C43.3039 34.7026 43.4321 34.7411 43.5472 34.7902C43.6623 34.8386 43.7689 34.8981 43.8663 34.968C43.9637 35.038 44.0546 35.1145 44.1383 35.1982L43.6257 35.7887C43.4831 35.6599 43.3373 35.5592 43.1889 35.4859C43.0404 35.4127 42.8743 35.3761 42.6893 35.3761C42.5356 35.3761 42.3937 35.4055 42.263 35.465C42.1322 35.5245 42.0197 35.6062 41.9255 35.7109C41.8314 35.8155 41.7581 35.9364 41.7058 36.0744C41.6535 36.2117 41.6274 36.3595 41.6274 36.5165V36.5269C41.6274 36.6838 41.6535 36.8323 41.7058 36.9716C41.7581 37.1108 41.8307 37.2325 41.9229 37.3377C42.0151 37.4424 42.1269 37.5248 42.2577 37.5862C42.3885 37.647 42.5324 37.6778 42.6893 37.6778C42.8985 37.6778 43.0757 37.6392 43.2202 37.5627C43.3648 37.4862 43.5093 37.3815 43.6518 37.2488L44.1645 37.7667C44.0703 37.868 43.9729 37.9583 43.8715 38.0387Z" fill="#005896"/>
<path fill-rule="evenodd" clip-rule="evenodd" d="M44.8076 38.3578V34.696H47.5644V35.4127H45.6027V36.1555H47.329V36.8722H45.6027V37.6411H47.5906V38.3578H44.8076Z" fill="#005896"/>
<path fill-rule="evenodd" clip-rule="evenodd" d="M48.3125 38.3578V34.696H49.1181V37.6307H50.9438V38.3578H48.3125Z" fill="#005896"/>
<path fill-rule="evenodd" clip-rule="evenodd" d="M51.5505 38.3578V34.696H54.308V35.4127H52.3457V36.1555H54.0719V36.8722H52.3457V37.6411H54.3342V38.3578H51.5505Z" fill="#005896"/>
<path fill-rule="evenodd" clip-rule="evenodd" d="M57.3676 37.2436C57.3676 37.1213 57.3205 37.0245 57.227 36.9533C57.1322 36.8813 56.9811 36.846 56.7712 36.846H55.8401V37.6516H56.7974C56.9752 37.6516 57.1152 37.6189 57.2159 37.5548C57.3172 37.4901 57.3676 37.39 57.3676 37.254V37.2436ZM57.1636 35.7789C57.1636 35.6566 57.1185 35.5631 57.0276 35.499C56.9367 35.4343 56.8059 35.4022 56.6352 35.4022H55.8401V36.1764H56.5829C56.7608 36.1764 56.902 36.1457 57.0066 36.0849C57.1113 36.0234 57.1636 35.9247 57.1636 35.7887V35.7789ZM58.0666 37.7929C58.0019 37.9184 57.9097 38.0224 57.7893 38.1067C57.669 38.1904 57.5252 38.2532 57.3558 38.295C57.1871 38.3362 57.0001 38.3578 56.7941 38.3578H55.0554V34.696H56.7529C57.1283 34.696 57.4232 34.781 57.6376 34.9523C57.8521 35.123 57.9587 35.3532 57.9587 35.6428V35.6527C57.9587 35.7579 57.9456 35.8501 57.9195 35.9306C57.894 36.0103 57.8587 36.0829 57.8162 36.1477C57.773 36.2117 57.722 36.2686 57.6651 36.3177C57.6082 36.3661 57.5468 36.4079 57.4807 36.4426C57.6919 36.5236 57.8587 36.6322 57.9803 36.7695C58.1019 36.9075 58.1627 37.0984 58.1627 37.343V37.3534C58.1627 37.5208 58.13 37.6673 58.0666 37.7929Z" fill="#005896"/>
<path fill-rule="evenodd" clip-rule="evenodd" d="M61.0712 35.9463C61.0712 35.7717 61.0156 35.6409 60.9038 35.5539C60.7926 35.4663 60.637 35.4231 60.4382 35.4231H59.6379V36.4746H60.4539C60.6527 36.4746 60.8051 36.4275 60.9117 36.3334C61.0176 36.2385 61.0712 36.1137 61.0712 35.9567V35.9463ZM61.0555 38.3578L60.2708 37.186H59.6379V38.3578H58.8323V34.696H60.5062C60.9417 34.696 61.2818 34.8026 61.5237 35.0151C61.7663 35.2276 61.8879 35.5245 61.8879 35.9044V35.9149C61.8879 36.2111 61.8147 36.453 61.6702 36.6394C61.5257 36.8257 61.3367 36.9624 61.1026 37.05L61.9971 38.3578H61.0555Z" fill="#005896"/>
<path fill-rule="evenodd" clip-rule="evenodd" d="M64.2308 35.6376L63.7443 36.8244H64.718L64.2308 35.6376ZM65.3398 38.3578L65.005 37.5365H63.4566L63.1218 38.3578H62.3005L63.8699 34.6699H64.6127L66.182 38.3578H65.3398Z" fill="#005896"/>
<path fill-rule="evenodd" clip-rule="evenodd" d="M67.9396 35.4388V38.3578H67.134V35.4388H66.0198V34.696H69.0538V35.4388H67.9396Z" fill="#005896"/>
<path fill-rule="evenodd" clip-rule="evenodd" d="M69.7078 38.3578H70.5134V34.696H69.7078V38.3578Z" fill="#005896"/>
<path fill-rule="evenodd" clip-rule="evenodd" d="M73.9974 38.3578L72.2241 36.03V38.3578H71.429V34.696H72.1718L73.8876 36.9506V34.696H74.6827V38.3578H73.9974Z" fill="#005896"/>
<path fill-rule="evenodd" clip-rule="evenodd" d="M78.2161 38.2506C77.9565 38.3637 77.659 38.4206 77.3242 38.4206C77.0378 38.4206 76.7776 38.3735 76.5422 38.2793C76.3068 38.1852 76.1047 38.0544 75.9354 37.8864C75.766 37.7196 75.6346 37.5208 75.5404 37.2907C75.4463 37.0605 75.3992 36.8094 75.3992 36.5374V36.5269C75.3992 36.2654 75.4469 36.0201 75.543 35.7919C75.6392 35.5631 75.7725 35.363 75.9432 35.1897C76.1139 35.0177 76.3166 34.8817 76.55 34.7823C76.7835 34.6829 77.0398 34.6332 77.319 34.6332C77.4831 34.6332 77.6322 34.6444 77.7663 34.6672C77.9003 34.6895 78.0252 34.7222 78.1403 34.764C78.2554 34.8059 78.3633 34.8582 78.4646 34.921C78.5653 34.9837 78.6634 35.055 78.7576 35.1348L78.2501 35.7475C78.1802 35.688 78.1109 35.6357 78.0409 35.5905C77.9709 35.5448 77.899 35.5068 77.8238 35.4748C77.7486 35.4441 77.6675 35.4199 77.5806 35.4022C77.4936 35.3846 77.3975 35.3761 77.2928 35.3761C77.1464 35.3761 77.0091 35.4068 76.8822 35.4676C76.7547 35.5291 76.6435 35.6108 76.5474 35.7141C76.4513 35.8174 76.3767 35.9378 76.3225 36.0757C76.2689 36.2137 76.2414 36.3615 76.2414 36.5191V36.5295C76.2414 36.6969 76.2689 36.8519 76.3225 36.9931C76.3767 37.135 76.4533 37.2586 76.5526 37.3632C76.652 37.4679 76.7684 37.5489 76.9031 37.6065C77.0372 37.6647 77.1863 37.6935 77.3504 37.6935C77.6505 37.6935 77.9036 37.6196 78.1089 37.4718V36.9454H77.2981V36.2497H78.8883V37.8399C78.7 38.0001 78.4764 38.1368 78.2161 38.2506Z" fill="#005896"/>
<path fill-rule="evenodd" clip-rule="evenodd" d="M55.3642 42.8043C55.3642 42.6474 55.3374 42.4989 55.2831 42.3596C55.2295 42.2197 55.153 42.0981 55.053 41.9935C54.9536 41.8888 54.8359 41.8058 54.6999 41.745C54.5638 41.6842 54.4161 41.6534 54.2559 41.6534C54.0911 41.6534 53.942 41.6829 53.8079 41.7424C53.6732 41.8019 53.5588 41.8836 53.4627 41.9882C53.3666 42.0929 53.292 42.2138 53.2378 42.3518C53.1835 42.4898 53.1567 42.6369 53.1567 42.7938V42.8043C53.1567 42.9612 53.1835 43.1097 53.2378 43.2489C53.292 43.3882 53.3685 43.5105 53.4679 43.6151C53.5673 43.7197 53.6844 43.8021 53.8184 43.8636C53.9525 43.9244 54.1015 43.9551 54.2657 43.9551C54.4259 43.9551 54.5743 43.9251 54.7103 43.8662C54.8463 43.8067 54.9627 43.725 55.0582 43.6203C55.1543 43.5157 55.2295 43.3941 55.2831 43.2568C55.3374 43.1188 55.3642 42.9717 55.3642 42.8148V42.8043ZM56.0599 43.5393C55.9625 43.7675 55.8272 43.9682 55.6545 44.1408C55.4826 44.3135 55.2759 44.4495 55.0373 44.5489C54.7986 44.6483 54.5377 44.698 54.2559 44.698C53.9727 44.698 53.7131 44.6483 53.4758 44.5489C53.2384 44.4495 53.0337 44.3154 52.8611 44.1461C52.6885 43.9767 52.5544 43.7779 52.4583 43.5497C52.3622 43.3215 52.3145 43.0763 52.3145 42.8148V42.8043C52.3145 42.5427 52.3635 42.2975 52.4609 42.0693C52.5584 41.8405 52.6937 41.6404 52.8663 41.4677C53.039 41.2951 53.2449 41.1591 53.4836 41.0597C53.7223 40.9603 53.9832 40.9106 54.2657 40.9106C54.5481 40.9106 54.8077 40.9603 55.0458 41.0597C55.2825 41.1591 55.4871 41.2931 55.6598 41.4625C55.833 41.6319 55.9671 41.8306 56.0626 42.0588C56.1587 42.2871 56.2064 42.5323 56.2064 42.7938V42.8043C56.2064 43.0658 56.158 43.3104 56.0599 43.5393Z" fill="#005896"/>
<path fill-rule="evenodd" clip-rule="evenodd" d="M58.801 44.6613H58.0895L56.6091 40.9734H57.4984L58.4557 43.5523L59.413 40.9734H60.2814L58.801 44.6613Z" fill="#005896"/>
<path fill-rule="evenodd" clip-rule="evenodd" d="M60.8462 44.6352V40.9734H63.6037V41.6901H61.642V42.4329H63.3676V43.1495H61.642V43.9185H63.6298V44.6352H60.8462Z" fill="#005896"/>
<path fill-rule="evenodd" clip-rule="evenodd" d="M66.59 42.2236C66.59 42.049 66.5344 41.9183 66.4226 41.8313C66.3108 41.7437 66.1558 41.7005 65.957 41.7005H65.1567V42.752H65.9727C66.1715 42.752 66.3245 42.7049 66.4305 42.6107C66.537 42.5166 66.59 42.391 66.59 42.2341V42.2236ZM66.5737 44.6352L65.7896 43.4634H65.1567V44.6352H64.3511V40.9734H66.025C66.4612 40.9734 66.7999 41.08 67.0425 41.2925C67.2844 41.505 67.4061 41.8019 67.4061 42.1818V42.1922C67.4061 42.4885 67.3341 42.7304 67.189 42.9168C67.0438 43.1031 66.8548 43.2398 66.6214 43.3274L67.5159 44.6352H66.5737Z" fill="#005896"/>
<path fill-rule="evenodd" clip-rule="evenodd" d="M73.0356 100.857C73.0356 100.612 63.6215 94.0296 57.4527 103.077C51.2851 112.124 43.8589 110.942 43.8589 110.942C43.8589 110.942 53.8229 118.841 60.3108 108.309C66.7987 97.777 73.0356 100.857 73.0356 100.857Z" fill="#005896"/>
<path fill-rule="evenodd" clip-rule="evenodd" d="M48.1052 111.49C48.1052 111.49 52.3536 111.558 56.4469 106.089C60.5409 100.62 62.9348 99.0678 66.1788 99.2025C62.549 99.4052 59.5006 103.449 57.142 106.464C52.8943 111.896 48.1052 111.49 48.1052 111.49Z" fill="#005896"/>
<path fill-rule="evenodd" clip-rule="evenodd" d="M46.1755 100.857C46.1755 100.612 55.589 94.0296 61.7571 103.077C67.9253 112.124 75.3509 110.942 75.3509 110.942C75.3509 110.942 65.3869 118.841 58.899 108.309C52.4111 97.777 46.1755 100.857 46.1755 100.857Z" fill="#005896"/>
<path fill-rule="evenodd" clip-rule="evenodd" d="M67.9856 111.585C67.9856 111.585 64.2917 111.643 60.732 106.888C57.1722 102.133 55.0902 100.782 52.2693 100.899C55.4256 101.076 58.0765 104.592 60.1271 107.214C63.8216 111.937 67.9856 111.585 67.9856 111.585Z" fill="#005896"/>
<path d="M62.602 116.283C92.0807 114.942 115.655 90.9497 116.327 61.3009M116.283 57.3972C114.942 27.9184 90.9495 4.34429 61.3007 3.67209M57.397 3.71655C27.9182 5.05703 4.34408 29.0496 3.67188 58.6984M3.71634 62.6022C5.05682 92.0809 29.0494 115.655 58.6982 116.327" stroke="#005896" stroke-width="2" stroke-linecap="round" stroke-linejoin="round"/>
</svg>
