<svg width="230" height="199" viewBox="0 0 230 199" fill="none" xmlns="http://www.w3.org/2000/svg">
<path d="M116.302 67.733C122.07 67.2546 122.07 67.2546 122.07 67.2546L128.8 123.686L124.474 129.903C124.474 129.903 107.169 105.992 107.65 96.4267C108.131 86.8618 110.534 68.6893 116.302 67.733Z" fill="#415A6B"/>
<path d="M0 153.856V199H230V166.687L0 153.856Z" fill="#F05540"/>
<path d="M230 185.18H0V199H230V185.18Z" fill="#F3705A"/>
<path d="M140.396 60.5459C140.396 60.5459 121.229 65.8156 118.833 66.7741C115.958 67.7321 113.083 68.6906 112.604 73.4811C112.125 78.272 109.729 98.3934 117.875 117.078L111.645 157.8L146.145 158.279L141.833 131.929C142.313 131.929 136.563 70.1274 140.396 60.5459Z" fill="#344A5E"/>
<path d="M182.083 62.4619C182.083 62.4619 203.646 65.8156 219.938 79.2296L205.083 158.278L140.396 164.985V151.092C143.75 140.552 165.313 96.9557 182.083 62.4619Z" fill="#344A5E"/>
<path d="M141.462 153.17C141.462 153.17 130.485 154.556 125.712 154.556C120.94 154.556 114.258 151.322 110.44 149.936C106.622 148.55 104.713 149.474 102.327 150.859C100.418 152.245 96.6001 162.871 96.6001 164.257C96.6001 165.643 118.554 168.415 124.281 167.491C130.008 166.567 131.917 166.105 135.735 166.105C139.553 166.105 147.667 166.105 147.667 166.105C147.667 166.105 153.393 154.094 141.462 153.17Z" fill="#FFD15C"/>
<path d="M102.407 150.157C100.471 151.621 97.5677 159.432 96.6001 162.849C97.0841 163.338 97.5677 164.314 98.5358 165.29C100.471 165.779 103.375 166.266 106.761 166.755C106.761 165.779 106.277 165.29 105.794 164.802C105.794 164.802 105.31 164.314 104.826 163.337C105.794 164.314 106.762 164.802 107.246 164.802C108.213 164.802 109.181 164.314 109.665 163.337C110.149 162.361 110.632 160.897 110.149 159.92C109.181 157.967 104.826 152.597 103.858 151.133C103.858 151.133 104.342 150.644 104.826 150.644C104.826 150.644 104.826 150.644 105.31 150.644C105.794 150.644 108.213 153.573 109.665 155.038C111.6 156.991 112.568 158.455 113.052 158.455C113.536 158.944 114.02 158.944 114.504 158.944C114.988 158.944 115.471 158.944 116.439 158.455C117.407 157.479 116.439 155.526 115.472 153.573C115.472 153.085 115.472 153.085 114.988 153.085C114.988 152.597 114.02 151.62 113.052 150.156C112.084 149.668 111.116 149.18 110.633 149.18C106.277 147.716 104.342 148.204 102.407 150.157Z" fill="#F7B64C"/>
<path d="M97.0862 161.86C97.0862 161.86 101.84 168.597 104.693 168.597C107.545 168.597 107.069 165.71 106.119 164.748C105.168 163.785 99.4635 157.048 99.4635 157.048L99.939 156.567C99.939 156.567 106.594 164.747 108.02 164.747C109.447 164.747 111.348 162.822 110.397 160.416C109.447 158.491 104.217 151.754 104.217 151.754C104.217 151.754 105.168 150.792 106.119 151.273C107.069 151.754 112.774 158.491 113.725 158.973C114.676 159.454 115.627 159.454 116.577 158.973C117.528 158.01 115.627 154.642 115.151 153.679C114.676 152.717 109.447 145.499 108.496 144.536C107.545 143.574 102.316 141.167 101.365 144.536C101.365 144.536 100.415 145.98 98.9884 145.98C97.5622 145.98 96.1361 146.942 96.1361 148.867C94.709 149.83 97.0862 161.86 97.0862 161.86Z" fill="#FFD15C"/>
<path d="M138.92 152.556C138.92 152.556 142.694 153.532 144.11 157.921C145.525 162.799 144.581 167.676 144.581 167.676H157.32V151.093L138.92 152.556Z" fill="#F3F3F3"/>
<path d="M132.503 40.8671L134.445 49.4256C134.445 49.4256 134.93 55.607 143.666 64.1656L145.608 89.3657L164.05 87.4637C171.816 78.4295 176.669 73.1994 184.92 64.1651C184.92 64.1651 173.757 57.5086 172.786 54.6557C171.816 51.8029 171.816 40.8671 171.816 40.8671C171.816 40.8671 171.816 18.5198 167.933 10.912C164.051 3.30422 132.989 9.00995 131.048 18.0442C129.591 27.554 132.503 40.8671 132.503 40.8671Z" fill="#FFD15C"/>
<path d="M172.04 51.5925C162.855 69.3194 152.221 68.3348 152.221 68.3348C145.937 68.8273 143.52 64.8877 143.52 64.8877L144.487 80.1527C165.756 75.2284 171.557 53.5619 172.04 51.5925Z" fill="#F7B64C"/>
<path d="M143.459 64.4907L144.44 77.4258C144.44 77.4258 141.005 78.863 137.08 88.4444V69.7604L143.459 64.4907Z" fill="#E8EAE9"/>
<path d="M144.825 76.9981C144.825 76.9981 145.788 77.4821 147.232 79.4172C148.195 80.8687 151.083 87.1589 151.083 87.1589C151.083 87.1589 153.009 82.8043 153.49 80.8687C153.971 78.9332 153.49 76.9981 154.934 76.0301C156.378 75.5461 160.711 75.5461 160.711 75.5461L177.56 76.0301L142.417 142.801L136.16 76.0306C136.16 76.0306 142.899 74.5791 144.825 76.9981Z" fill="#CED6E0"/>
<path d="M132.456 40.537C131.969 35.8255 131.969 31.1143 131.484 26.4028C131.484 24.518 130.997 23.1046 131.484 21.2203C131.97 19.3356 132.942 17.9222 134.4 17.4513C135.372 16.9801 136.831 16.9801 137.803 16.9801H157.734C159.678 16.9801 162.109 16.9801 163.567 18.3935C164.053 18.8648 164.539 19.8069 165.025 20.2782C170.859 26.874 166.484 37.2393 166.97 39.1241H175.72C175.72 38.6528 175.72 37.7106 175.72 37.2393C175.72 32.0569 175.72 26.874 175.72 21.2203C175.72 16.9801 175.72 12.2685 173.289 8.49949C170.859 4.2592 165.998 1.43235 161.137 0.49021C156.275 -0.451928 150.928 0.0189195 146.067 1.43235C142.664 2.37449 138.775 3.31707 136.345 5.67263C134.4 7.55735 132.942 9.91292 131.97 12.2685C129.539 14.624 128.567 17.4509 128.081 20.749C127.595 24.0472 128.081 27.3449 128.567 30.643C129.539 33.9412 132.456 40.537 132.456 40.537Z" fill="#415A6B"/>
<path d="M177.788 37.3061C178.006 33.0781 176.255 29.551 173.876 29.4281C171.498 29.3053 169.392 32.6331 169.174 36.8611C168.955 41.0891 170.707 44.6162 173.085 44.7391C175.464 44.862 177.569 41.5341 177.788 37.3061Z" fill="#FFD15C"/>
<path d="M173.463 56.1992C173.463 56.1992 174.921 63.7689 155.48 76.5424C155.48 76.5424 166.659 82.2195 167.631 91.2085L181.24 62.3496L173.463 56.1992Z" fill="#E8EAE9"/>
<path d="M176.333 58.1501C176.333 58.1501 172.5 68.6901 166.271 80.188C160.041 91.6859 140.875 143.427 140.396 151.092C140.396 151.092 144.708 140.552 147.583 136.24C150.458 131.929 182.083 87.3742 182.083 87.3742L176.333 82.1045L182.083 79.23C182.083 79.23 185.916 66.7741 184.958 63.4203C184.479 60.0666 183.042 61.0246 176.333 58.1501Z" fill="#415A6B"/>
<path d="M144.708 139.594L143.271 142.948C135.604 122.347 130.333 101.747 129.375 82.1043L134.646 78.2718L132.25 75.8766L140.875 60.5461C141.833 61.5042 142.313 62.4626 143.271 63.4206C142.791 65.8159 140.875 80.1883 141.833 98.8724C142.792 118.993 146.146 133.845 144.708 139.594Z" fill="#415A6B"/>
<path d="M192.625 113.724C192.625 113.724 194.062 99.8305 202.208 88.3326C210.354 76.8346 220.416 79.2299 220.416 79.2299C220.416 79.2299 225.208 82.1044 223.291 93.6023C221.375 105.1 221.854 126.659 221.854 134.324C221.854 141.99 223.291 162.111 210.354 165.464C197.416 169.297 150.937 169.297 150.937 169.297C150.937 169.297 153.812 156.841 149.5 153.487C145.187 150.613 145.187 150.613 145.187 150.613C145.187 150.613 159.562 148.217 166.75 148.217C173.937 148.217 188.791 145.343 188.791 145.343C188.791 145.343 189.271 140.073 190.708 136.24C192.146 132.408 191.666 125.7 192.146 122.347C192.625 118.993 192.625 113.724 192.625 113.724Z" fill="#415A6B"/>
<path d="M123.625 130.491C123.625 132.886 122.188 153.008 122.188 153.008C118.833 151.091 115.958 149.654 113.083 148.696C99.6664 143.905 91.5208 150.133 91.5208 150.133V145.342C91.5208 145.342 96.7914 130.491 98.7083 125.221C100.625 119.951 102.063 111.328 102.063 107.974C102.063 104.62 103.5 104.142 103.979 101.746C104.459 99.3507 106.375 84.499 109.25 75.8756C112.125 67.2521 115.479 67.7314 115.479 67.7314C114.042 68.6894 112.604 70.1266 112.125 73.0011C111.646 77.7921 109.25 97.9134 117.396 116.598C117.875 117.077 123.625 128.096 123.625 130.491Z" fill="#415A6B"/>
<path d="M136.001 170.698C136.001 170.698 138.92 168.781 138.92 167.823L88.3201 163.991L96.1049 175.968L136.001 170.698Z" fill="#ADB3BA"/>
<path d="M138.479 167.381C138 168.818 113.084 171.692 106.854 173.13C103.5 173.609 101.104 174.088 99.6667 174.088L100.146 178.399C100.146 178.399 128.896 174.088 134.646 173.608C139.917 172.651 138.479 167.381 138.479 167.381Z" fill="#CED6E0"/>
<path d="M100.146 177.921L89.6038 109.412C89.6038 107.975 88.1663 106.538 86.7288 106.538L1.91626 101.268L13.8956 165.465L100.146 177.921Z" fill="#CED6E0"/>
<path d="M99.7734 177.81C99.2976 177.81 98.3467 177.33 98.3467 176.849L88.36 109.109C88.36 108.148 87.409 107.667 86.4576 107.187L3.71097 101.902C3.23527 101.902 2.76001 101.421 2.76001 100.461C2.76001 99.9801 3.23571 99.5 4.18668 99.5L86.9333 105.265C88.8357 105.265 90.7376 107.187 91.2133 109.109L101.2 176.849C100.725 177.33 100.249 177.81 99.7734 177.81Z" fill="#E8EAE9"/>
</svg>
