<svg width="18" height="15" viewBox="0 0 18 15" fill="none" xmlns="http://www.w3.org/2000/svg">
<path d="M17.7168 2.00016C17.0751 2.29183 16.3834 2.4835 15.6668 2.57516C16.4001 2.1335 16.9668 1.4335 17.2334 0.591829C16.5418 1.0085 15.7751 1.30016 14.9668 1.46683C14.3084 0.750163 13.3834 0.333496 12.3334 0.333496C10.3751 0.333496 8.77512 1.9335 8.77512 3.9085C8.77512 4.19183 8.80845 4.46683 8.86678 4.72516C5.90012 4.57516 3.25845 3.15016 1.50011 0.991829C1.19178 1.51683 1.01678 2.1335 1.01678 2.7835C1.01678 4.02516 1.64178 5.12516 2.60845 5.75016C2.01678 5.75016 1.46678 5.5835 0.983447 5.3335V5.3585C0.983447 7.09183 2.21678 8.54183 3.85011 8.86683C3.32572 9.01034 2.77519 9.0303 2.24178 8.92516C2.46812 9.63556 2.9114 10.2572 3.50929 10.7026C4.10719 11.148 4.82965 11.3949 5.57511 11.4085C4.31147 12.4089 2.74511 12.9496 1.13345 12.9418C0.850114 12.9418 0.566781 12.9252 0.283447 12.8918C1.86678 13.9085 3.75011 14.5002 5.76678 14.5002C12.3334 14.5002 15.9418 9.05016 15.9418 4.32516C15.9418 4.16683 15.9418 4.01683 15.9334 3.8585C16.6334 3.3585 17.2334 2.72516 17.7168 2.00016Z" fill="white"/>
</svg>
